<?xml version="1.0" encoding="utf-8"?>
<?xml-stylesheet type="text/xsl" href="rss1.xsl"?>
<rss version="2.0" xmlns:atom="http://www.w3.org/2005/Atom" xmlns:content="http://purl.org/rss/1.0/modules/content/" xmlns:dc="http://purl.org/dc/elements/1.1/" xmlns:media="http://search.yahoo.com/mrss/">
<channel>
 <title>Getty</title>
 <link>http://www.gettyimg.com/</link>
 <atom:link href="http://www.gettyimg.com/" rel="self" type="application/rss+xml" />

 
                <item>
                <title><![CDATA[【Requests】[REQ AUD] - Carinho - Caipirinha]]></title>
                <link><![CDATA[https://sharemania.us/threads/carinho-caipirinha.234631/]]></link>
                <description><![CDATA[<article>
<blockquote class="messageText SelectQuoteContainer ugc baseHtml">
<div style="text-align: center"><span style="font-family: 'Times New Roman'"><span style="font-size: 18px">can anyone make this EP available in .FLAC? i love this song<br>
<br>
<a href="https://www.discogs.com/pt_BR/release/3356209-Carinho-Caipirinha" target="_blank" class="externalLink" rel="nofollow">https://www.discogs.com/pt_BR/release/3356209-Carinho-Caipirinha</a></span></span>​</div>
<div class="messageTextEndMarker">&nbsp;</div>
</blockquote>
</article>]]></description>
                <author><![CDATA[Merida]]></author>
                </item>

                
                <item>
                <title><![CDATA[【UPSCALED】Avril Lavigne - Here's To Never Growing Up (Music Video) HD Upscale]]></title>
                <link><![CDATA[https://sharemania.us/threads/avril-lavigne-heres-to-never-growing-up-music-video-hd-upscale.234632/]]></link>
                <description><![CDATA[<article>
<blockquote class="messageText SelectQuoteContainer ugc baseHtml">
I never saw anyone upscale this music video, so I did it myself using Topaz Video Enhanced AI. Hope you like it, enjoy!<img src="styles/default/xenforo/smilies/big_smile-48.png" class="mceSmilie" alt=":)" title="Smile    :)"><br>
<br>
<img src="https://i.imgur.com/XzbXoMo.png" class="bbCodeImage LbImage" alt="[​IMG]" data-url="https://i.imgur.com/XzbXoMo.png" style=""> <img src="https://i.imgur.com/ptbCdoh.png" class="bbCodeImage LbImage" alt="[​IMG]" data-url="https://i.imgur.com/ptbCdoh.png" style=""> <img src="https://i.imgur.com/6YEntoj.png" class="bbCodeImage LbImage" alt="[​IMG]" data-url="https://i.imgur.com/6YEntoj.png" style=""> <img src="https://i.imgur.com/Jdugl39.png" class="bbCodeImage LbImage" alt="[​IMG]" data-url="https://i.imgur.com/Jdugl39.png" style=""> <img src="https://i.imgur.com/RCTpLwS.png" class="bbCodeImage LbImage" alt="[​IMG]" data-url="https://i.imgur.com/RCTpLwS.png" style=""> <img src="https://i.imgur.com/1g2Sl8z.png" class="bbCodeImage LbImage" alt="[​IMG]" data-url="https://i.imgur.com/1g2Sl8z.png" style=""> <img src="https://i.imgur.com/ZIKFaQg.png" class="bbCodeImage LbImage" alt="[​IMG]" data-url="https://i.imgur.com/ZIKFaQg.png" style="">
<div class="ToggleTriggerAnchor bbCodeSpoilerContainer">
<button type="button" class="button bbCodeSpoilerButton ToggleTrigger Tooltip JsOnly" data-target="> .SpoilerTarget"><span>Spoiler: <span class="SpoilerTitle">MediaInfo</span></span></button>
<div class="SpoilerTarget bbCodeSpoilerText">General<br>
File size : 1.09 GiB<br>
Duration : 3 min 44 s<br>
Overall bit rate : 41.9 Mb/s<br>
Writing application : Lavf60.14.101<br>
Writing library : Lavf60.14.101<br>
<br>
Video<br>
ID : 1<br>
Format : HEVC<br>
Format/Info : High Efficiency Video Coding<br>
Format profile : Main@L6.2@High<br>
Codec ID : V_MPEGH/ISO/HEVC<br>
Duration : 3 min 44 s<br>
Bit rate : 38.9 Mb/s<br>
Width : 1 920 pixels<br>
Height : 1 080 pixels<br>
Display aspect ratio : 16:9<br>
Frame rate mode : Constant<br>
Frame rate : 23.976 (24000/1001) FPS<br>
Color space : YUV<br>
Chroma subsampling : 4:2:0<br>
Bit depth : 8 bits<br>
Bits/(Pixel*Frame) : 0.783<br>
Stream size : 1.02 GiB (93%)<br>
Writing library : Lavc60.27.101 hevc_amf<br>
Default : No<br>
Forced : No<br>
Color range : Limited<br>
Transfer characteristics : BT.709<br>
Matrix coefficients : BT.709<br>
<br>
Audio<br>
ID : 2<br>
Format : PCM<br>
Format settings : Little / Signed<br>
Codec ID : A_PCM/INT/LIT<br>
Duration : 3 min 44 s<br>
Bit rate mode : Constant<br>
Bit rate : 2 117 kb/s<br>
Channel(s) : 2 channels<br>
Sampling rate : 44.1 kHz<br>
Bit depth : 24 bits<br>
Stream size : 56.6 MiB (5%)<br>
Writing library : Lavc60.27.101 pcm_s24le<br>
Default : No<br>
Forced : No</div>
</div><br>
<div class="bbCodeBlock bbCodeVfcHH HiddenContent">
<div class="attribution type">Hidden Content:</div>
<blockquote>You must reply before you can see the hidden data contained here.</blockquote>
</div>
<div class="messageTextEndMarker">&nbsp;</div>
</blockquote>
</article>]]></description>
                <author><![CDATA[Avril1255]]></author>
                </item>

                </channel></rss>